<svg width="800" height="800" viewBox="0 0 800 800" fill="none" xmlns="http://www.w3.org/2000/svg">
<path d="M133.333 240.007V560.007C133.333 597.343 133.333 616.003 140.6 630.263C146.991 642.807 157.182 653.017 169.727 659.407C183.973 666.667 202.633 666.667 239.897 666.667H560.103C597.367 666.667 616 666.667 630.247 659.407C642.79 653.017 653.017 642.807 659.407 630.263C666.667 616.017 666.667 597.383 666.667 560.12V239.897C666.667 202.633 666.667 183.973 659.407 169.727C653.017 157.182 642.79 146.991 630.247 140.6C615.987 133.333 597.343 133.333 560.007 133.333H240.007C202.67 133.333 183.987 133.333 169.727 140.6C157.182 146.991 146.991 157.182 140.6 169.727C133.333 183.987 133.333 202.67 133.333 240.007Z" stroke="#015CA0" stroke-width="66.6667" stroke-linecap="round" stroke-linejoin="round"/>
<path d="M246.833 307.304V491.704C246.833 513.219 246.833 523.972 251.02 532.189C254.703 539.417 260.576 545.301 267.805 548.983C276.015 553.167 286.767 553.167 308.241 553.167H492.759C514.232 553.167 524.97 553.167 533.18 548.983C540.408 545.301 546.301 539.417 549.983 532.189C554.167 523.98 554.167 513.242 554.167 491.769V307.241C554.167 285.767 554.167 275.015 549.983 266.805C546.301 259.576 540.408 253.703 533.18 250.02C524.962 245.833 514.219 245.833 492.704 245.833H308.304C286.788 245.833 276.023 245.833 267.805 250.02C260.576 253.703 254.703 259.576 251.02 266.805C246.833 275.023 246.833 285.788 246.833 307.304Z" stroke="#015CA0" stroke-width="66.6667" stroke-linecap="round" stroke-linejoin="round"/>
<rect x="267" y="262" width="278" height="281" fill="#015CA0"/>
</svg>
