<svg width="18" height="18" viewBox="0 0 18 18" fill="none" xmlns="http://www.w3.org/2000/svg">
<rect width="18" height="18" rx="9" fill="#F5DD5F"/>
<path d="M3.66655 7.03716C3.46078 7.22133 3.44327 7.53742 3.62744 7.74319C3.8116 7.94895 4.1277 7.96646 4.33346 7.7823L3.66655 7.03716ZM13.6666 7.7823C13.8723 7.96646 14.1884 7.94895 14.3726 7.74319C14.5568 7.53742 14.5392 7.22133 14.3335 7.03716L13.6666 7.7823ZM9 12.5C8.72385 12.5 8.5 12.7238 8.5 13C8.5 13.2761 8.72385 13.5 9 13.5V12.5ZM9.005 13.5C9.28115 13.5 9.505 13.2761 9.505 13C9.505 12.7238 9.28115 12.5 9.005 12.5V13.5ZM10.3453 11.52C10.5495 11.7058 10.8658 11.6908 11.0516 11.4866C11.2374 11.2823 11.2224 10.9661 11.0182 10.7802L10.3453 11.52ZM12.027 9.67015C12.2312 9.85595 12.5475 9.841 12.7333 9.6367C12.9191 9.43245 12.9041 9.1162 12.6999 8.9304L12.027 9.67015ZM6.98186 10.7802C6.77759 10.9661 6.76262 11.2823 6.94844 11.4866C7.13425 11.6908 7.45048 11.7058 7.65475 11.52L6.98186 10.7802ZM5.30017 8.9304C5.0959 9.1162 5.08093 9.43245 5.26674 9.6367C5.45256 9.841 5.76878 9.85595 5.97306 9.67015L5.30017 8.9304ZM8.28525 5.03152C8.0102 5.0559 7.80696 5.29864 7.83133 5.5737C7.85571 5.84877 8.09845 6.05199 8.3735 6.02762L8.28525 5.03152ZM11.6697 8.1899C11.4284 8.0557 11.1239 8.1425 10.9897 8.38385C10.8555 8.6252 10.9424 8.92965 11.1837 9.06385L11.6697 8.1899ZM4.85356 4.14644C4.65829 3.95119 4.34171 3.95119 4.14645 4.14644C3.95119 4.34171 3.95119 4.65829 4.14645 4.85355L4.85356 4.14644ZM13.1465 13.8535C13.3417 14.0488 13.6583 14.0488 13.8536 13.8535C14.0488 13.6583 14.0488 13.3417 13.8536 13.1464L13.1465 13.8535ZM9 6C10.7932 6 12.4278 6.67358 13.6666 7.7823L14.3335 7.03716C12.9185 5.77069 11.0486 5 9 5V6ZM9 13.5H9.005V12.5H9V13.5ZM9 11C9.51835 11 9.98965 11.1965 10.3453 11.52L11.0182 10.7802C10.4857 10.2959 9.7768 10 9 10V11ZM7.65475 11.52C8.01035 11.1965 8.48165 11 9 11V10C8.2232 10 7.51436 10.2959 6.98186 10.7802L7.65475 11.52ZM8.3735 6.02762C8.5798 6.00934 8.78875 6 9 6V5C8.75925 5 8.52085 5.01065 8.28525 5.03152L8.3735 6.02762ZM11.1837 9.06385C11.4879 9.233 11.7706 9.437 12.027 9.67015L12.6999 8.9304C12.3876 8.64635 12.0422 8.39705 11.6697 8.1899L11.1837 9.06385ZM4.14645 4.85355L5.73324 6.44035L6.44035 5.73324L4.85356 4.14644L4.14645 4.85355ZM4.33346 7.7823C4.90607 7.2698 5.56324 6.85037 6.28116 6.54747L5.89243 5.62612C5.07126 5.97258 4.32035 6.452 3.66655 7.03716L4.33346 7.7823ZM5.73324 6.44035L7.73021 8.4373L8.4373 7.73021L6.44035 5.73324L5.73324 6.44035ZM7.73021 8.4373L13.1465 13.8535L13.8536 13.1464L8.4373 7.73021L7.73021 8.4373ZM5.97306 9.67015C6.5797 9.11835 7.33678 8.7306 8.1748 8.5754L7.99272 7.59212C6.96636 7.7822 6.04054 8.25695 5.30017 8.9304L5.97306 9.67015Z" fill="black"/>
</svg>
